<mxfile host="app.diagrams.net" modified="2023-02-07T07:44:18.816Z" agent="5.0 (X11; Linux x86_64) AppleWebKit/537.36 (KHTML, like Gecko) Chrome/108.0.0.0 Safari/537.36" version="20.8.3" etag="ERLgt-e9I3CsX5_wqizm" type="github">
  <diagram id="FizPLoSQLYe1gzLvjSa9" name="Page-1">
    <mxGraphModel dx="808" dy="495" grid="1" gridSize="10" guides="1" tooltips="1" connect="1" arrows="1" fold="1" page="1" pageScale="1" pageWidth="827" pageHeight="1169" math="0" shadow="0">
      <root>
        <mxCell id="0" />
        <mxCell id="1" parent="0" />
        <mxCell id="Q_FtnWakDOvtHRs0xmHj-1" value="buy-form" style="ellipse;whiteSpace=wrap;html=1;" vertex="1" parent="1">
          <mxGeometry x="140" y="70" width="120" height="80" as="geometry" />
        </mxCell>
        <mxCell id="Q_FtnWakDOvtHRs0xmHj-2" value="" style="endArrow=classic;html=1;rounded=0;exitX=0.5;exitY=1;exitDx=0;exitDy=0;" edge="1" parent="1" source="Q_FtnWakDOvtHRs0xmHj-1">
          <mxGeometry width="50" height="50" relative="1" as="geometry">
            <mxPoint x="390" y="280" as="sourcePoint" />
            <mxPoint x="200" y="190" as="targetPoint" />
          </mxGeometry>
        </mxCell>
        <mxCell id="Q_FtnWakDOvtHRs0xmHj-3" value="ProposalView" style="ellipse;whiteSpace=wrap;html=1;" vertex="1" parent="1">
          <mxGeometry x="140" y="190" width="120" height="80" as="geometry" />
        </mxCell>
        <mxCell id="Q_FtnWakDOvtHRs0xmHj-4" value="" style="endArrow=classic;html=1;rounded=0;exitX=1;exitY=0.5;exitDx=0;exitDy=0;" edge="1" parent="1" source="Q_FtnWakDOvtHRs0xmHj-3" target="Q_FtnWakDOvtHRs0xmHj-5">
          <mxGeometry width="50" height="50" relative="1" as="geometry">
            <mxPoint x="390" y="280" as="sourcePoint" />
            <mxPoint x="300" y="230" as="targetPoint" />
          </mxGeometry>
        </mxCell>
        <mxCell id="Q_FtnWakDOvtHRs0xmHj-5" value="def planquote&lt;br&gt;gets planquotes from&lt;br&gt;cache" style="ellipse;whiteSpace=wrap;html=1;" vertex="1" parent="1">
          <mxGeometry x="340" y="190" width="120" height="80" as="geometry" />
        </mxCell>
        <mxCell id="Q_FtnWakDOvtHRs0xmHj-6" value="" style="endArrow=classic;html=1;rounded=0;exitX=0.033;exitY=0.338;exitDx=0;exitDy=0;exitPerimeter=0;" edge="1" parent="1" source="Q_FtnWakDOvtHRs0xmHj-5">
          <mxGeometry width="50" height="50" relative="1" as="geometry">
            <mxPoint x="390" y="270" as="sourcePoint" />
            <mxPoint x="256" y="217" as="targetPoint" />
          </mxGeometry>
        </mxCell>
        <mxCell id="Q_FtnWakDOvtHRs0xmHj-7" value="" style="endArrow=classic;html=1;rounded=0;exitX=1;exitY=1;exitDx=0;exitDy=0;" edge="1" parent="1" source="Q_FtnWakDOvtHRs0xmHj-3" target="Q_FtnWakDOvtHRs0xmHj-8">
          <mxGeometry width="50" height="50" relative="1" as="geometry">
            <mxPoint x="390" y="270" as="sourcePoint" />
            <mxPoint x="350" y="320" as="targetPoint" />
          </mxGeometry>
        </mxCell>
        <mxCell id="Q_FtnWakDOvtHRs0xmHj-8" value="get_form_module" style="ellipse;whiteSpace=wrap;html=1;" vertex="1" parent="1">
          <mxGeometry x="340" y="300" width="120" height="80" as="geometry" />
        </mxCell>
        <mxCell id="Q_FtnWakDOvtHRs0xmHj-9" value="" style="endArrow=classic;html=1;rounded=0;exitX=0;exitY=0.5;exitDx=0;exitDy=0;entryX=0.75;entryY=0.988;entryDx=0;entryDy=0;entryPerimeter=0;" edge="1" parent="1" source="Q_FtnWakDOvtHRs0xmHj-8" target="Q_FtnWakDOvtHRs0xmHj-3">
          <mxGeometry width="50" height="50" relative="1" as="geometry">
            <mxPoint x="390" y="270" as="sourcePoint" />
            <mxPoint x="440" y="220" as="targetPoint" />
          </mxGeometry>
        </mxCell>
        <mxCell id="Q_FtnWakDOvtHRs0xmHj-10" value="" style="endArrow=classic;html=1;rounded=0;exitX=0.5;exitY=1;exitDx=0;exitDy=0;" edge="1" parent="1" source="Q_FtnWakDOvtHRs0xmHj-3" target="Q_FtnWakDOvtHRs0xmHj-11">
          <mxGeometry width="50" height="50" relative="1" as="geometry">
            <mxPoint x="330" y="390" as="sourcePoint" />
            <mxPoint x="200" y="400" as="targetPoint" />
          </mxGeometry>
        </mxCell>
        <mxCell id="Q_FtnWakDOvtHRs0xmHj-11" value="get_prefill_data" style="ellipse;whiteSpace=wrap;html=1;" vertex="1" parent="1">
          <mxGeometry x="140" y="370" width="120" height="80" as="geometry" />
        </mxCell>
        <mxCell id="Q_FtnWakDOvtHRs0xmHj-12" value="" style="endArrow=classic;html=1;rounded=0;exitX=0.5;exitY=1;exitDx=0;exitDy=0;" edge="1" parent="1" source="Q_FtnWakDOvtHRs0xmHj-11">
          <mxGeometry width="50" height="50" relative="1" as="geometry">
            <mxPoint x="330" y="390" as="sourcePoint" />
            <mxPoint x="200" y="480" as="targetPoint" />
          </mxGeometry>
        </mxCell>
        <mxCell id="Q_FtnWakDOvtHRs0xmHj-13" value="planquote" style="ellipse;whiteSpace=wrap;html=1;" vertex="1" parent="1">
          <mxGeometry x="140" y="480" width="120" height="80" as="geometry" />
        </mxCell>
        <mxCell id="Q_FtnWakDOvtHRs0xmHj-14" value="" style="endArrow=classic;html=1;rounded=0;exitX=0.5;exitY=1;exitDx=0;exitDy=0;" edge="1" parent="1" source="Q_FtnWakDOvtHRs0xmHj-13" target="Q_FtnWakDOvtHRs0xmHj-15">
          <mxGeometry width="50" height="50" relative="1" as="geometry">
            <mxPoint x="300" y="710" as="sourcePoint" />
            <mxPoint x="200" y="600" as="targetPoint" />
          </mxGeometry>
        </mxCell>
        <mxCell id="Q_FtnWakDOvtHRs0xmHj-15" value="is_customization&lt;br&gt;_available" style="ellipse;whiteSpace=wrap;html=1;" vertex="1" parent="1">
          <mxGeometry x="140" y="600" width="120" height="80" as="geometry" />
        </mxCell>
        <mxCell id="Q_FtnWakDOvtHRs0xmHj-16" value="" style="endArrow=classic;html=1;rounded=0;exitX=0.5;exitY=1;exitDx=0;exitDy=0;" edge="1" parent="1" source="Q_FtnWakDOvtHRs0xmHj-15">
          <mxGeometry width="50" height="50" relative="1" as="geometry">
            <mxPoint x="300" y="700" as="sourcePoint" />
            <mxPoint x="200" y="720" as="targetPoint" />
          </mxGeometry>
        </mxCell>
        <mxCell id="Q_FtnWakDOvtHRs0xmHj-17" value="generate_proposal&lt;br&gt;_fields" style="ellipse;whiteSpace=wrap;html=1;" vertex="1" parent="1">
          <mxGeometry x="140" y="720" width="120" height="80" as="geometry" />
        </mxCell>
        <mxCell id="Q_FtnWakDOvtHRs0xmHj-18" value="" style="endArrow=classic;html=1;rounded=0;exitX=0.5;exitY=1;exitDx=0;exitDy=0;" edge="1" parent="1" source="Q_FtnWakDOvtHRs0xmHj-17" target="Q_FtnWakDOvtHRs0xmHj-19">
          <mxGeometry width="50" height="50" relative="1" as="geometry">
            <mxPoint x="280" y="890" as="sourcePoint" />
            <mxPoint x="200" y="840" as="targetPoint" />
          </mxGeometry>
        </mxCell>
        <mxCell id="Q_FtnWakDOvtHRs0xmHj-19" value="get_proposal_form&lt;br&gt;_modules" style="ellipse;whiteSpace=wrap;html=1;" vertex="1" parent="1">
          <mxGeometry x="140" y="830" width="120" height="80" as="geometry" />
        </mxCell>
      </root>
    </mxGraphModel>
  </diagram>
</mxfile>
